<?xml version="1.0" encoding="UTF-8" standalone="no"?>
<!DOCTYPE svg PUBLIC "-//W3C//DTD SVG 1.1//EN" "http://www.w3.org/Graphics/SVG/1.1/DTD/svg11.dtd">
<svg width="100%" height="100%" viewBox="0 0 325 57" version="1.1" xmlns="http://www.w3.org/2000/svg" xmlns:xlink="http://www.w3.org/1999/xlink" xml:space="preserve" xmlns:serif="http://www.serif.com/" style="fill-rule:evenodd;clip-rule:evenodd;stroke-linejoin:round;stroke-miterlimit:2;">
    <g>
        <g transform="matrix(4.14301,0,0,4.14301,-238.668,-96.9258)">
            <text x="60.442px" y="34.569px" style="font-family:'ArialRoundedMTBold', 'Arial Rounded MT Bold', sans-serif;font-size:12px;fill:white;">YICsoft</text>
        </g>
        <g>
            <path d="M204.501,21.291L204.501,25.751L217.038,25.751L217.038,34.043L204.501,34.043L204.501,45L193,45L193,13L220,13L220,21.291L204.501,21.291ZM234.86,22.41C234.09,23.688 233.705,25.718 233.705,28.5C233.705,31.283 234.09,33.313 234.861,34.59C235.631,35.87 236.852,36.508 238.525,36.508C240.197,36.508 241.409,35.869 242.165,34.591C242.918,33.313 243.295,31.283 243.295,28.501C243.295,25.718 242.918,23.688 242.165,22.41C241.409,21.132 240.197,20.493 238.525,20.493C236.852,20.493 235.631,21.132 234.861,22.41M250.647,16.344C253.55,19.239 255,23.292 255,28.5C255,33.71 253.549,37.762 250.647,40.657C247.746,43.553 243.704,45 238.525,45C235.115,45 232.172,44.354 229.697,43.06C227.221,41.765 225.32,39.88 223.992,37.405C222.664,34.93 222,31.962 222,28.5C222,25.039 222.664,22.07 223.992,19.595C225.32,17.12 227.221,15.235 229.697,13.941C232.172,12.647 235.114,12 238.525,12C243.705,12 247.745,13.448 250.647,16.344M268.86,22.41C268.09,23.688 267.705,25.718 267.705,28.5C267.705,31.283 268.09,33.313 268.861,34.59C269.631,35.87 270.852,36.508 272.525,36.508C274.197,36.508 275.409,35.869 276.165,34.591C276.918,33.313 277.295,31.283 277.295,28.501C277.295,25.718 276.918,23.688 276.165,22.41C275.409,21.132 274.197,20.493 272.525,20.493C270.852,20.493 269.631,21.132 268.861,22.41M284.647,16.344C287.55,19.239 289,23.292 289,28.5C289,33.71 287.549,37.762 284.647,40.657C281.747,43.553 277.704,45 272.525,45C269.115,45 266.172,44.354 263.697,43.06C261.221,41.765 259.32,39.88 257.992,37.405C256.664,34.93 256,31.962 256,28.5C256,25.039 256.664,22.07 257.992,19.595C259.32,17.12 261.221,15.235 263.697,13.941C266.172,12.647 269.114,12 272.525,12C277.705,12 281.746,13.448 284.647,16.344M312.708,35.11C313.43,33.881 313.791,31.845 313.791,29C313.791,26.156 313.431,24.12 312.708,22.89C311.986,21.663 310.651,21.049 308.705,21.049L305.974,21.049L305.974,36.952L308.704,36.952C310.651,36.952 311.986,36.338 312.708,35.109M321.256,17.146C323.752,19.909 325,23.86 325,29C325,34.14 323.752,38.09 321.256,40.855C318.76,43.618 315.093,45 310.259,45L295,45L295,13L310.259,13C315.093,13 318.759,14.382 321.256,17.146" style="fill:rgb(255,199,0);"/>
        </g>
    </g>
</svg>
